<svg width="33" height="32" viewBox="0 0 33 32" fill="currentColor" xmlns="http://www.w3.org/2000/svg">
<path fill-rule="evenodd" clip-rule="evenodd" d="M2.5 16C2.5 19.713 3.975 23.274 6.6005 25.8995C9.22601 28.525 12.787 30 16.5 30C20.213 30 23.774 28.525 26.3995 25.8995C29.025 23.274 30.5 19.713 30.5 16C30.5 12.287 29.025 8.72601 26.3995 6.1005C23.774 3.475 20.213 2 16.5 2C12.787 2 9.22601 3.475 6.6005 6.1005C3.975 8.72601 2.5 12.287 2.5 16ZM32.5 16C32.5 20.2435 30.8143 24.3131 27.8137 27.3137C24.8131 30.3143 20.7435 32 16.5 32C12.2565 32 8.18687 30.3143 5.18629 27.3137C2.18571 24.3131 0.5 20.2435 0.5 16C0.5 11.7565 2.18571 7.68687 5.18629 4.68629C8.18687 1.68571 12.2565 0 16.5 0C20.7435 0 24.8131 1.68571 27.8137 4.68629C30.8143 7.68687 32.5 11.7565 32.5 16ZM12.208 21.606C12.0205 21.7938 11.7661 21.8994 11.5007 21.8996C11.2353 21.8997 10.9808 21.7945 10.793 21.607C10.6052 21.4195 10.4996 21.1651 10.4994 20.8997C10.4993 20.6343 10.6045 20.3798 10.792 20.192L18.986 12H13.45C13.1848 12 12.9304 11.8946 12.7429 11.7071C12.5554 11.5196 12.45 11.2652 12.45 11C12.45 10.7348 12.5554 10.4804 12.7429 10.2929C12.9304 10.1054 13.1848 10 13.45 10H21.4C21.6652 10 21.9196 10.1054 22.1071 10.2929C22.2946 10.4804 22.4 10.7348 22.4 11V18.95C22.4 19.2152 22.2946 19.4696 22.1071 19.6571C21.9196 19.8446 21.6652 19.95 21.4 19.95C21.1348 19.95 20.8804 19.8446 20.6929 19.6571C20.5054 19.4696 20.4 19.2152 20.4 18.95V13.414L12.208 21.606Z" fill="currentColor"/>
</svg>
