<svg width="20" height="12" viewBox="0 0 20 12" fill="none" xmlns="http://www.w3.org/2000/svg">
<path fill-rule="evenodd" clip-rule="evenodd" d="M19.774 11.2692C19.7026 11.3424 19.6177 11.4004 19.5243 11.44C19.4308 11.4796 19.3307 11.5 19.2295 11.5C19.1283 11.5 19.0281 11.4796 18.9347 11.44C18.8413 11.4004 18.7564 11.3424 18.6849 11.2692L9.9998 2.39763L1.31466 11.2692C1.24315 11.3423 1.15826 11.4002 1.06482 11.4397C0.971388 11.4792 0.871244 11.4996 0.770111 11.4996C0.66898 11.4996 0.568836 11.4792 0.475403 11.4397C0.381968 11.4002 0.297071 11.3423 0.225561 11.2692C0.154049 11.1962 0.0973225 11.1095 0.0586205 11.0141C0.0199184 10.9186 0 10.8164 0 10.7131C0 10.6098 0.0199184 10.5075 0.0586205 10.4121C0.0973225 10.3167 0.154049 10.23 0.225561 10.1569L9.45525 0.730773C9.52669 0.657621 9.61157 0.599584 9.70501 0.559983C9.79846 0.520384 9.89863 0.5 9.9998 0.5C10.101 0.5 10.2011 0.520384 10.2946 0.559983C10.388 0.599584 10.4729 0.657621 10.5443 0.730773L19.774 10.1569C19.8457 10.2299 19.9025 10.3166 19.9413 10.412C19.98 10.5075 20 10.6098 20 10.7131C20 10.8164 19.98 10.9187 19.9413 11.0141C19.9025 11.1096 19.8457 11.1963 19.774 11.2692Z" fill="#191919"/>
</svg>
