<svg width="26" height="24" viewBox="0 0 26 24" fill="none" xmlns="http://www.w3.org/2000/svg">
<path d="M0 4.33333C0 3.31667 0.34241 2.34165 0.951903 1.62276C1.5614 0.903868 2.38805 0.5 3.25 0.5H22.75C23.612 0.5 24.4386 0.903868 25.0481 1.62276C25.6576 2.34165 26 3.31667 26 4.33333V19.6667C26 20.6833 25.6576 21.6584 25.0481 22.3772C24.4386 23.0961 23.612 23.5 22.75 23.5H3.25C2.38805 23.5 1.5614 23.0961 0.951903 22.3772C0.34241 21.6584 0 20.6833 0 19.6667V4.33333ZM3.25 2.41667C2.81902 2.41667 2.4057 2.6186 2.10095 2.97805C1.7962 3.33749 1.625 3.825 1.625 4.33333V4.74925L13 12.7992L24.375 4.74925V4.33333C24.375 3.825 24.2038 3.33749 23.899 2.97805C23.5943 2.6186 23.181 2.41667 22.75 2.41667H3.25ZM24.375 6.98408L16.7245 12.3987L24.375 17.9512V6.98408ZM24.3197 20.1631L15.1548 13.5103L13 15.0341L10.8452 13.5103L1.68025 20.1612C1.77259 20.569 1.97651 20.9295 2.26036 21.1867C2.5442 21.4438 2.89209 21.5833 3.25 21.5833H22.75C23.1077 21.5834 23.4554 21.4442 23.7392 21.1874C24.0231 20.9307 24.2271 20.5706 24.3197 20.1631ZM1.625 17.9512L9.2755 12.3987L1.625 6.98408V17.9512Z" fill="#191919"/>
</svg>
