<svg width="20" height="26" viewBox="0 0 20 26" fill="none" xmlns="http://www.w3.org/2000/svg">
<path d="M5.83333 11.375C5.61232 11.375 5.40036 11.4606 5.24408 11.613C5.0878 11.7653 5 11.972 5 12.1875C5 12.403 5.0878 12.6097 5.24408 12.762C5.40036 12.9144 5.61232 13 5.83333 13H14.1667C14.3877 13 14.5996 12.9144 14.7559 12.762C14.9122 12.6097 15 12.403 15 12.1875C15 11.972 14.9122 11.7653 14.7559 11.613C14.5996 11.4606 14.3877 11.375 14.1667 11.375H5.83333ZM5 15.4375C5 15.222 5.0878 15.0153 5.24408 14.863C5.40036 14.7106 5.61232 14.625 5.83333 14.625H14.1667C14.3877 14.625 14.5996 14.7106 14.7559 14.863C14.9122 15.0153 15 15.222 15 15.4375C15 15.653 14.9122 15.8597 14.7559 16.012C14.5996 16.1644 14.3877 16.25 14.1667 16.25H5.83333C5.61232 16.25 5.40036 16.1644 5.24408 16.012C5.0878 15.8597 5 15.653 5 15.4375ZM5 18.6875C5 18.472 5.0878 18.2653 5.24408 18.113C5.40036 17.9606 5.61232 17.875 5.83333 17.875H9.16667C9.38768 17.875 9.59964 17.9606 9.75592 18.113C9.9122 18.2653 10 18.472 10 18.6875C10 18.903 9.9122 19.1096 9.75592 19.262C9.59964 19.4144 9.38768 19.5 9.16667 19.5H5.83333C5.61232 19.5 5.40036 19.4144 5.24408 19.262C5.0878 19.1096 5 18.903 5 18.6875Z" fill="#191919"/>
<path d="M12.5 0H3.33333C2.44928 0 1.60143 0.34241 0.976311 0.951903C0.351189 1.5614 0 2.38805 0 3.25V22.75C0 23.612 0.351189 24.4386 0.976311 25.0481C1.60143 25.6576 2.44928 26 3.33333 26H16.6667C17.5507 26 18.3986 25.6576 19.0237 25.0481C19.6488 24.4386 20 23.612 20 22.75V7.3125L12.5 0ZM12.5 1.625V4.875C12.5 5.52146 12.7634 6.14145 13.2322 6.59857C13.7011 7.05569 14.337 7.3125 15 7.3125H18.3333V22.75C18.3333 23.181 18.1577 23.5943 17.8452 23.899C17.5326 24.2038 17.1087 24.375 16.6667 24.375H3.33333C2.89131 24.375 2.46738 24.2038 2.15482 23.899C1.84226 23.5943 1.66667 23.181 1.66667 22.75V3.25C1.66667 2.81902 1.84226 2.4057 2.15482 2.10095C2.46738 1.7962 2.89131 1.625 3.33333 1.625H12.5Z" fill="#191919"/>
</svg>
