<svg width="26" height="25" viewBox="0 0 26 25" fill="none" xmlns="http://www.w3.org/2000/svg">
<path d="M13 0C5.8175 0 0 5.73524 0 12.8162C0 18.4873 3.72125 23.2774 8.88875 24.9755C9.53875 25.0877 9.7825 24.7032 9.7825 24.3667C9.7825 24.0624 9.76625 23.0531 9.76625 21.9797C6.5 22.5725 5.655 21.1947 5.395 20.4738C5.24875 20.1054 4.615 18.9679 4.0625 18.6636C3.6075 18.4232 2.9575 17.8305 4.04625 17.8145C5.07 17.7985 5.80125 18.7437 6.045 19.1281C7.215 21.0666 9.08375 20.5219 9.83125 20.1855C9.945 19.3524 10.2863 18.7917 10.66 18.4713C7.7675 18.1509 4.745 17.0455 4.745 12.1433C4.745 10.7496 5.24875 9.59611 6.0775 8.69898C5.9475 8.37857 5.4925 7.06492 6.2075 5.30269C6.2075 5.30269 7.29625 4.96627 9.7825 6.61635C10.8225 6.32799 11.9275 6.1838 13.0325 6.1838C14.1375 6.1838 15.2425 6.32799 16.2825 6.61635C18.7688 4.95025 19.8575 5.30269 19.8575 5.30269C20.5725 7.06492 20.1175 8.37857 19.9875 8.69898C20.8162 9.59611 21.32 10.7335 21.32 12.1433C21.32 17.0615 18.2812 18.1509 15.3888 18.4713C15.86 18.8718 16.2663 19.6408 16.2663 20.8423C16.2663 22.5565 16.25 23.9342 16.25 24.3667C16.25 24.7032 16.4937 25.1037 17.1438 24.9755C19.7249 24.1172 21.9678 22.4822 23.5567 20.3009C25.1455 18.1195 26 15.5017 26 12.8162C26 5.73524 20.1825 0 13 0Z" fill="#191919"/>
</svg>
