<svg width="31" height="30" viewBox="0 0 31 30" fill="none" xmlns="http://www.w3.org/2000/svg">
<path d="M11.7511 0.52079C11.9336 0.743424 12.0455 1.01556 12.0722 1.30223C12.0989 1.5889 12.0393 1.87702 11.9011 2.12956C10.8163 4.11962 10.2501 6.35072 10.2547 8.61716C10.2547 16.1566 16.4015 22.2617 23.9772 22.2617C24.9673 22.2605 25.9255 22.1605 26.8518 21.9617C27.1352 21.9011 27.4302 21.9249 27.7001 22.0303C27.9701 22.1356 28.2033 22.3178 28.3707 22.5542C28.5479 22.8004 28.6383 23.0983 28.6278 23.4014C28.6173 23.7044 28.5064 23.9954 28.3126 24.2286C26.8418 26.035 24.9864 27.4905 22.8817 28.4889C20.777 29.4873 18.476 30.0035 16.1465 30C7.5019 30 0.5 23.0361 0.5 14.456C0.5 7.9984 4.46412 2.45957 10.1084 0.112033C10.3895 -0.00740579 10.7018 -0.0321211 10.9981 0.0416226C11.2945 0.115366 11.5588 0.283561 11.7511 0.52079ZM9.6096 2.45769C7.43941 3.62192 5.62517 5.35226 4.35962 7.46486C3.09408 9.57745 2.42451 11.9934 2.42205 14.456C2.42205 21.9936 8.57076 28.0987 16.1465 28.0987C17.9605 28.1014 19.7571 27.7446 21.4324 27.0488C23.1077 26.3529 24.6285 25.332 25.9068 24.0449C25.2742 24.1236 24.631 24.163 23.9772 24.163C15.3326 24.163 8.33261 17.1992 8.33261 8.61904C8.33261 6.43088 8.7864 4.34772 9.6096 2.45769Z" fill="#472A52"/>
<path d="M20.7406 5.90212C20.7675 5.82092 20.8193 5.75026 20.8887 5.70018C20.958 5.6501 21.0414 5.62314 21.1269 5.62314C21.2125 5.62314 21.2958 5.6501 21.3652 5.70018C21.4345 5.75026 21.4863 5.82092 21.5132 5.90212L22.2389 8.0809C22.5633 9.05217 23.3246 9.81343 24.296 10.1378L26.4749 10.8634C26.5561 10.8903 26.6268 10.9421 26.6769 11.0115C26.727 11.0808 26.7539 11.1642 26.7539 11.2497C26.7539 11.3352 26.727 11.4186 26.6769 11.4879C26.6268 11.5573 26.5561 11.6091 26.4749 11.636L24.296 12.3616C23.8166 12.5207 23.3811 12.7895 23.0239 13.1466C22.6668 13.5037 22.398 13.9392 22.2389 14.4185L21.5132 16.5973C21.4863 16.6785 21.4345 16.7491 21.3652 16.7992C21.2958 16.8493 21.2125 16.8763 21.1269 16.8763C21.0414 16.8763 20.958 16.8493 20.8887 16.7992C20.8193 16.7491 20.7675 16.6785 20.7406 16.5973L20.015 14.4185C19.8559 13.9392 19.5871 13.5037 19.2299 13.1466C18.8728 12.7895 18.4372 12.5207 17.9579 12.3616L15.7789 11.636C15.6977 11.6091 15.6271 11.5573 15.577 11.4879C15.5269 11.4186 15.4999 11.3352 15.4999 11.2497C15.4999 11.1642 15.5269 11.0808 15.577 11.0115C15.6271 10.9421 15.6977 10.8903 15.7789 10.8634L17.9579 10.1378C18.4372 9.97873 18.8728 9.70995 19.2299 9.35285C19.5871 8.99575 19.8559 8.56021 20.015 8.0809L20.7406 5.90212ZM26.4956 0.18516C26.5141 0.131771 26.5488 0.0854754 26.5948 0.0527105C26.6408 0.0199457 26.6959 0.00233934 26.7525 0.00233934C26.809 0.00233934 26.8641 0.0199457 26.9101 0.0527105C26.9562 0.0854754 26.9908 0.131771 27.0094 0.18516L27.4932 1.63643C27.7088 2.28519 28.217 2.79332 28.8658 3.00895L30.3172 3.49271C30.3706 3.51122 30.4169 3.5459 30.4496 3.59194C30.4824 3.63798 30.5 3.69308 30.5 3.74959C30.5 3.80609 30.4824 3.8612 30.4496 3.90723C30.4169 3.95327 30.3706 3.98796 30.3172 4.00647L28.8658 4.49022C28.5463 4.5971 28.2561 4.77671 28.0179 5.01489C27.7797 5.25307 27.6 5.54331 27.4932 5.86275L27.0094 7.31402C26.9908 7.36741 26.9562 7.4137 26.9101 7.44647C26.8641 7.47923 26.809 7.49684 26.7525 7.49684C26.6959 7.49684 26.6408 7.47923 26.5948 7.44647C26.5488 7.4137 26.5141 7.36741 26.4956 7.31402L26.0118 5.86275C25.9049 5.54331 25.7253 5.25307 25.4871 5.01489C25.2489 4.77671 24.9586 4.5971 24.6391 4.49022L23.1877 4.00647C23.1344 3.98796 23.0881 3.95327 23.0553 3.90723C23.0225 3.8612 23.0049 3.80609 23.0049 3.74959C23.0049 3.69308 23.0225 3.63798 23.0553 3.59194C23.0881 3.5459 23.1344 3.51122 23.1877 3.49271L24.6391 3.00895C25.2879 2.79332 25.7961 2.28519 26.0118 1.63643L26.4956 0.18516Z" fill="#472A52"/>
</svg>
