<svg width="31" height="30" viewBox="0 0 31 30" fill="none" xmlns="http://www.w3.org/2000/svg">
<path d="M15.5 20.625C14.0082 20.625 12.5774 20.0324 11.5225 18.9775C10.4676 17.9226 9.875 16.4918 9.875 15C9.875 13.5082 10.4676 12.0774 11.5225 11.0225C12.5774 9.96763 14.0082 9.375 15.5 9.375C16.9918 9.375 18.4226 9.96763 19.4775 11.0225C20.5324 12.0774 21.125 13.5082 21.125 15C21.125 16.4918 20.5324 17.9226 19.4775 18.9775C18.4226 20.0324 16.9918 20.625 15.5 20.625ZM15.5 22.5C17.4891 22.5 19.3968 21.7098 20.8033 20.3033C22.2098 18.8968 23 16.9891 23 15C23 13.0109 22.2098 11.1032 20.8033 9.6967C19.3968 8.29018 17.4891 7.5 15.5 7.5C13.5109 7.5 11.6032 8.29018 10.1967 9.6967C8.79018 11.1032 8 13.0109 8 15C8 16.9891 8.79018 18.8968 10.1967 20.3033C11.6032 21.7098 13.5109 22.5 15.5 22.5ZM15.5 0C15.7486 0 15.9871 0.0987721 16.1629 0.274587C16.3387 0.450403 16.4375 0.68886 16.4375 0.9375V4.6875C16.4375 4.93614 16.3387 5.1746 16.1629 5.35041C15.9871 5.52623 15.7486 5.625 15.5 5.625C15.2514 5.625 15.0129 5.52623 14.8371 5.35041C14.6613 5.1746 14.5625 4.93614 14.5625 4.6875V0.9375C14.5625 0.68886 14.6613 0.450403 14.8371 0.274587C15.0129 0.0987721 15.2514 0 15.5 0ZM15.5 24.375C15.7486 24.375 15.9871 24.4738 16.1629 24.6496C16.3387 24.8254 16.4375 25.0639 16.4375 25.3125V29.0625C16.4375 29.3111 16.3387 29.5496 16.1629 29.7254C15.9871 29.9012 15.7486 30 15.5 30C15.2514 30 15.0129 29.9012 14.8371 29.7254C14.6613 29.5496 14.5625 29.3111 14.5625 29.0625V25.3125C14.5625 25.0639 14.6613 24.8254 14.8371 24.6496C15.0129 24.4738 15.2514 24.375 15.5 24.375ZM30.5 15C30.5 15.2486 30.4012 15.4871 30.2254 15.6629C30.0496 15.8387 29.8111 15.9375 29.5625 15.9375H25.8125C25.5639 15.9375 25.3254 15.8387 25.1496 15.6629C24.9738 15.4871 24.875 15.2486 24.875 15C24.875 14.7514 24.9738 14.5129 25.1496 14.3371C25.3254 14.1613 25.5639 14.0625 25.8125 14.0625H29.5625C29.8111 14.0625 30.0496 14.1613 30.2254 14.3371C30.4012 14.5129 30.5 14.7514 30.5 15ZM6.125 15C6.125 15.2486 6.02623 15.4871 5.85041 15.6629C5.6746 15.8387 5.43614 15.9375 5.1875 15.9375H1.4375C1.18886 15.9375 0.950403 15.8387 0.774587 15.6629C0.598772 15.4871 0.5 15.2486 0.5 15C0.5 14.7514 0.598772 14.5129 0.774587 14.3371C0.950403 14.1613 1.18886 14.0625 1.4375 14.0625H5.1875C5.43614 14.0625 5.6746 14.1613 5.85041 14.3371C6.02623 14.5129 6.125 14.7514 6.125 15ZM26.1069 4.39313C26.2826 4.56893 26.3814 4.80735 26.3814 5.05594C26.3814 5.30453 26.2826 5.54294 26.1069 5.71875L23.4556 8.37188C23.3685 8.45892 23.265 8.52794 23.1512 8.575C23.0373 8.62206 22.9153 8.64623 22.7922 8.64615C22.5434 8.64597 22.3048 8.54698 22.1291 8.37094C22.042 8.28377 21.973 8.18032 21.9259 8.06648C21.8789 7.95264 21.8547 7.83064 21.8548 7.70746C21.855 7.45868 21.954 7.22016 22.13 7.04437L24.7812 4.39313C24.9571 4.21737 25.1955 4.11864 25.4441 4.11864C25.6927 4.11864 25.9311 4.21737 26.1069 4.39313ZM8.87 21.63C9.04575 21.8058 9.14449 22.0442 9.14449 22.2928C9.14449 22.5414 9.04575 22.7798 8.87 22.9556L6.21875 25.6069C6.04194 25.7776 5.80512 25.8721 5.55931 25.87C5.3135 25.8679 5.07837 25.7693 4.90455 25.5955C4.73073 25.4216 4.63213 25.1865 4.62999 24.9407C4.62786 24.6949 4.72235 24.4581 4.89313 24.2812L7.54437 21.63C7.72018 21.4542 7.9586 21.3555 8.20719 21.3555C8.45578 21.3555 8.69419 21.4542 8.87 21.63ZM26.1069 25.6069C25.9311 25.7826 25.6927 25.8814 25.4441 25.8814C25.1955 25.8814 24.9571 25.7826 24.7812 25.6069L22.13 22.9556C21.9592 22.7788 21.8647 22.542 21.8669 22.2962C21.869 22.0504 21.9676 21.8152 22.1414 21.6414C22.3152 21.4676 22.5504 21.369 22.7962 21.3669C23.042 21.3647 23.2788 21.4592 23.4556 21.63L26.1069 24.2812C26.2826 24.4571 26.3814 24.6955 26.3814 24.9441C26.3814 25.1927 26.2826 25.4311 26.1069 25.6069ZM8.87 8.37188C8.69419 8.54763 8.45578 8.64636 8.20719 8.64636C7.9586 8.64636 7.72018 8.54763 7.54437 8.37188L4.89313 5.71875C4.80358 5.63227 4.73216 5.52882 4.68303 5.41444C4.6339 5.30006 4.60803 5.17704 4.60695 5.05256C4.60587 4.92808 4.62959 4.80463 4.67673 4.68942C4.72387 4.5742 4.79348 4.46953 4.8815 4.3815C4.96953 4.29348 5.0742 4.22387 5.18942 4.17673C5.30463 4.12959 5.42808 4.10587 5.55256 4.10695C5.67704 4.10803 5.80006 4.1339 5.91444 4.18303C6.02882 4.23216 6.13227 4.30358 6.21875 4.39313L8.87 7.04437C8.95731 7.13146 9.02657 7.23491 9.07384 7.34881C9.1211 7.46271 9.14543 7.58481 9.14543 7.70813C9.14543 7.83144 9.1211 7.95354 9.07384 8.06744C9.02657 8.18134 8.95731 8.28479 8.87 8.37188Z" fill="#C8B7D8"/>
</svg>
